<svg xmlns="http://www.w3.org/2000/svg" xmlns:xlink="http://www.w3.org/1999/xlink" width="200" zoomAndPan="magnify" viewBox="0 0 150 74.999997" height="100" preserveAspectRatio="xMidYMid meet" version="1.0"><defs><g/><clipPath id="f4e51d6aa1"><path d="M 21.941406 34.050781 L 111.941406 34.050781 L 111.941406 43.050781 L 21.941406 43.050781 Z M 21.941406 34.050781 " clip-rule="nonzero"/></clipPath></defs><g fill="#000000" fill-opacity="1"><g transform="translate(2.507815, 47.602557)"><g><path d="M 19.859375 -16.671875 L 7.75 -9.59375 L 7.78125 -9.359375 L 19.90625 -2.953125 L 18.171875 0.234375 L 2.875 -7.9375 L 2.671875 -10.703125 L 18.171875 -19.65625 Z M 19.859375 -16.671875 "/></g></g></g><g fill="#000000" fill-opacity="1"><g transform="translate(25.154035, 47.602557)"><g><path d="M 12.90625 -28.4375 L 16.40625 -26.90625 L 4.359375 4.796875 L 0.78125 3.34375 Z M 12.90625 -28.4375 "/></g></g></g><g fill="#000000" fill-opacity="1"><g transform="translate(41.507812, 47.602557)"><g/></g></g><g fill="#000000" fill-opacity="1"><g transform="translate(51.92665, 47.602557)"><g/></g></g><g fill="#000000" fill-opacity="1"><g transform="translate(62.345487, 47.602557)"><g/></g></g><g fill="#000000" fill-opacity="1"><g transform="translate(72.764325, 47.602557)"><g/></g></g><g fill="#000000" fill-opacity="1"><g transform="translate(83.183163, 47.602557)"><g/></g></g><g fill="#000000" fill-opacity="1"><g transform="translate(93.602, 47.602557)"><g/></g></g><g fill="#000000" fill-opacity="1"><g transform="translate(104.020838, 47.602557)"><g/></g></g><g fill="#000000" fill-opacity="1"><g transform="translate(114.439676, 47.602557)"><g/></g></g><g fill="#000000" fill-opacity="1"><g transform="translate(124.851555, 47.602557)"><g><path d="M 4.484375 -19.65625 L 19.984375 -10.703125 L 19.78125 -7.9375 L 4.484375 0.234375 L 2.75 -2.953125 L 14.859375 -9.359375 L 14.90625 -9.59375 L 2.796875 -16.671875 Z M 4.484375 -19.65625 "/></g></g></g><g clip-path="url(#f4e51d6aa1)"><path fill="#ffffff" d="M 21.992188 34.050781 L 111.890625 34.050781 L 111.890625 43.050781 L 21.992188 43.050781 L 21.992188 34.050781 " fill-opacity="1" fill-rule="nonzero"/></g><g fill="#000000" fill-opacity="1"><g transform="translate(66.8342, 38.55019)"><g/></g></g><g fill="#000000" fill-opacity="1"><g transform="translate(66.8342, 39.30019)"><g/></g></g><g fill="#000000" fill-opacity="1"><g transform="translate(25.19045, 41.913015)"><g><path d="M 2.703125 -4.453125 L 3.265625 -4.453125 C 3.796875 -4.453125 4.1875 -4.539062 4.4375 -4.71875 C 4.695312 -4.90625 4.828125 -5.191406 4.828125 -5.578125 C 4.828125 -5.953125 4.695312 -6.21875 4.4375 -6.375 C 4.175781 -6.539062 3.769531 -6.625 3.21875 -6.625 L 2.703125 -6.625 Z M 2.703125 -3.078125 L 2.703125 0 L 1.015625 0 L 1.015625 -8.015625 L 3.34375 -8.015625 C 4.4375 -8.015625 5.242188 -7.816406 5.765625 -7.421875 C 6.285156 -7.023438 6.546875 -6.425781 6.546875 -5.625 C 6.546875 -5.144531 6.414062 -4.722656 6.15625 -4.359375 C 5.894531 -3.992188 5.53125 -3.707031 5.0625 -3.5 C 6.269531 -1.695312 7.054688 -0.53125 7.421875 0 L 5.53125 0 L 3.609375 -3.078125 Z M 2.703125 -3.078125 "/></g></g></g><g fill="#000000" fill-opacity="1"><g transform="translate(32.601735, 41.913015)"><g><path d="M 4.765625 0 L 4.453125 -0.828125 L 4.40625 -0.828125 C 4.125 -0.472656 3.832031 -0.226562 3.53125 -0.09375 C 3.238281 0.0390625 2.851562 0.109375 2.375 0.109375 C 1.78125 0.109375 1.3125 -0.0546875 0.96875 -0.390625 C 0.632812 -0.734375 0.46875 -1.210938 0.46875 -1.828125 C 0.46875 -2.484375 0.695312 -2.960938 1.15625 -3.265625 C 1.613281 -3.578125 2.300781 -3.75 3.21875 -3.78125 L 4.28125 -3.8125 L 4.28125 -4.09375 C 4.28125 -4.707031 3.960938 -5.015625 3.328125 -5.015625 C 2.835938 -5.015625 2.257812 -4.867188 1.59375 -4.578125 L 1.046875 -5.703125 C 1.742188 -6.078125 2.523438 -6.265625 3.390625 -6.265625 C 4.210938 -6.265625 4.84375 -6.082031 5.28125 -5.71875 C 5.71875 -5.363281 5.9375 -4.820312 5.9375 -4.09375 L 5.9375 0 Z M 4.28125 -2.84375 L 3.625 -2.8125 C 3.144531 -2.800781 2.785156 -2.710938 2.546875 -2.546875 C 2.304688 -2.390625 2.1875 -2.148438 2.1875 -1.828125 C 2.1875 -1.347656 2.457031 -1.109375 3 -1.109375 C 3.382812 -1.109375 3.691406 -1.21875 3.921875 -1.4375 C 4.160156 -1.664062 4.28125 -1.96875 4.28125 -2.34375 Z M 4.28125 -2.84375 "/></g></g></g><g fill="#000000" fill-opacity="1"><g transform="translate(39.382622, 41.913015)"><g><path d="M 4.25 0.109375 C 3.53125 0.109375 2.960938 -0.148438 2.546875 -0.671875 L 2.46875 -0.671875 C 2.519531 -0.160156 2.546875 0.132812 2.546875 0.21875 L 2.546875 2.703125 L 0.875 2.703125 L 0.875 -6.140625 L 2.234375 -6.140625 L 2.46875 -5.34375 L 2.546875 -5.34375 C 2.941406 -5.945312 3.523438 -6.25 4.296875 -6.25 C 5.015625 -6.25 5.578125 -5.96875 5.984375 -5.40625 C 6.398438 -4.84375 6.609375 -4.066406 6.609375 -3.078125 C 6.609375 -2.421875 6.507812 -1.847656 6.3125 -1.359375 C 6.125 -0.878906 5.851562 -0.515625 5.5 -0.265625 C 5.144531 -0.015625 4.726562 0.109375 4.25 0.109375 Z M 3.75 -4.90625 C 3.332031 -4.90625 3.03125 -4.773438 2.84375 -4.515625 C 2.65625 -4.265625 2.554688 -3.847656 2.546875 -3.265625 L 2.546875 -3.09375 C 2.546875 -2.425781 2.644531 -1.953125 2.84375 -1.671875 C 3.039062 -1.390625 3.351562 -1.25 3.78125 -1.25 C 4.53125 -1.25 4.90625 -1.863281 4.90625 -3.09375 C 4.90625 -3.695312 4.8125 -4.148438 4.625 -4.453125 C 4.4375 -4.753906 4.144531 -4.90625 3.75 -4.90625 Z M 3.75 -4.90625 "/></g></g></g><g fill="#000000" fill-opacity="1"><g transform="translate(46.486931, 41.913015)"><g><path d="M 6.53125 0 L 4.859375 0 L 4.859375 -3.578125 C 4.859375 -4.460938 4.53125 -4.90625 3.875 -4.90625 C 3.40625 -4.90625 3.066406 -4.742188 2.859375 -4.421875 C 2.648438 -4.109375 2.546875 -3.597656 2.546875 -2.890625 L 2.546875 0 L 0.875 0 L 0.875 -8.53125 L 2.546875 -8.53125 L 2.546875 -6.796875 C 2.546875 -6.660156 2.535156 -6.34375 2.515625 -5.84375 L 2.46875 -5.34375 L 2.5625 -5.34375 C 2.9375 -5.945312 3.53125 -6.25 4.34375 -6.25 C 5.0625 -6.25 5.601562 -6.050781 5.96875 -5.65625 C 6.34375 -5.269531 6.53125 -4.71875 6.53125 -4 Z M 6.53125 0 "/></g></g></g><g fill="#000000" fill-opacity="1"><g transform="translate(53.865325, 41.913015)"><g><path d="M 4.765625 0 L 4.453125 -0.828125 L 4.40625 -0.828125 C 4.125 -0.472656 3.832031 -0.226562 3.53125 -0.09375 C 3.238281 0.0390625 2.851562 0.109375 2.375 0.109375 C 1.78125 0.109375 1.3125 -0.0546875 0.96875 -0.390625 C 0.632812 -0.734375 0.46875 -1.210938 0.46875 -1.828125 C 0.46875 -2.484375 0.695312 -2.960938 1.15625 -3.265625 C 1.613281 -3.578125 2.300781 -3.75 3.21875 -3.78125 L 4.28125 -3.8125 L 4.28125 -4.09375 C 4.28125 -4.707031 3.960938 -5.015625 3.328125 -5.015625 C 2.835938 -5.015625 2.257812 -4.867188 1.59375 -4.578125 L 1.046875 -5.703125 C 1.742188 -6.078125 2.523438 -6.265625 3.390625 -6.265625 C 4.210938 -6.265625 4.84375 -6.082031 5.28125 -5.71875 C 5.71875 -5.363281 5.9375 -4.820312 5.9375 -4.09375 L 5.9375 0 Z M 4.28125 -2.84375 L 3.625 -2.8125 C 3.144531 -2.800781 2.785156 -2.710938 2.546875 -2.546875 C 2.304688 -2.390625 2.1875 -2.148438 2.1875 -1.828125 C 2.1875 -1.347656 2.457031 -1.109375 3 -1.109375 C 3.382812 -1.109375 3.691406 -1.21875 3.921875 -1.4375 C 4.160156 -1.664062 4.28125 -1.96875 4.28125 -2.34375 Z M 4.28125 -2.84375 "/></g></g></g><g fill="#000000" fill-opacity="1"><g transform="translate(60.646212, 41.913015)"><g><path d="M 3.421875 -5.0625 C 3.066406 -5.0625 2.785156 -4.945312 2.578125 -4.71875 C 2.378906 -4.5 2.265625 -4.179688 2.234375 -3.765625 L 4.578125 -3.765625 C 4.578125 -4.179688 4.472656 -4.5 4.265625 -4.71875 C 4.054688 -4.945312 3.773438 -5.0625 3.421875 -5.0625 Z M 3.65625 0.109375 C 2.664062 0.109375 1.890625 -0.160156 1.328125 -0.703125 C 0.773438 -1.253906 0.5 -2.023438 0.5 -3.015625 C 0.5 -4.046875 0.753906 -4.84375 1.265625 -5.40625 C 1.785156 -5.96875 2.5 -6.25 3.40625 -6.25 C 4.269531 -6.25 4.941406 -6 5.421875 -5.5 C 5.910156 -5.007812 6.15625 -4.332031 6.15625 -3.46875 L 6.15625 -2.65625 L 2.203125 -2.65625 C 2.222656 -2.175781 2.363281 -1.800781 2.625 -1.53125 C 2.882812 -1.269531 3.253906 -1.140625 3.734375 -1.140625 C 4.097656 -1.140625 4.441406 -1.175781 4.765625 -1.25 C 5.097656 -1.320312 5.445312 -1.445312 5.8125 -1.625 L 5.8125 -0.328125 C 5.519531 -0.179688 5.207031 -0.0703125 4.875 0 C 4.539062 0.0703125 4.132812 0.109375 3.65625 0.109375 Z M 3.65625 0.109375 "/></g></g></g><g fill="#000000" fill-opacity="1"><g transform="translate(67.279093, 41.913015)"><g><path d="M 2.546875 0 L 0.875 0 L 0.875 -8.53125 L 2.546875 -8.53125 Z M 2.546875 0 "/></g></g></g><g fill="#000000" fill-opacity="1"><g transform="translate(70.705167, 41.913015)"><g/></g></g><g fill="#000000" fill-opacity="1"><g transform="translate(73.621442, 41.913015)"><g><path d="M 2.6875 0 L 1.015625 0 L 1.015625 -8.015625 L 5.609375 -8.015625 L 5.609375 -6.625 L 2.6875 -6.625 L 2.6875 -4.5625 L 5.40625 -4.5625 L 5.40625 -3.171875 L 2.6875 -3.171875 Z M 2.6875 0 "/></g></g></g><g fill="#000000" fill-opacity="1"><g transform="translate(79.782895, 41.913015)"><g><path d="M 4.296875 -6.25 C 4.523438 -6.25 4.710938 -6.234375 4.859375 -6.203125 L 4.734375 -4.625 C 4.597656 -4.664062 4.4375 -4.6875 4.25 -4.6875 C 3.707031 -4.6875 3.285156 -4.546875 2.984375 -4.265625 C 2.691406 -3.992188 2.546875 -3.613281 2.546875 -3.125 L 2.546875 0 L 0.875 0 L 0.875 -6.140625 L 2.140625 -6.140625 L 2.390625 -5.09375 L 2.46875 -5.09375 C 2.664062 -5.445312 2.925781 -5.726562 3.25 -5.9375 C 3.570312 -6.144531 3.921875 -6.25 4.296875 -6.25 Z M 4.296875 -6.25 "/></g></g></g><g fill="#000000" fill-opacity="1"><g transform="translate(84.880894, 41.913015)"><g><path d="M 4.765625 0 L 4.453125 -0.828125 L 4.40625 -0.828125 C 4.125 -0.472656 3.832031 -0.226562 3.53125 -0.09375 C 3.238281 0.0390625 2.851562 0.109375 2.375 0.109375 C 1.78125 0.109375 1.3125 -0.0546875 0.96875 -0.390625 C 0.632812 -0.734375 0.46875 -1.210938 0.46875 -1.828125 C 0.46875 -2.484375 0.695312 -2.960938 1.15625 -3.265625 C 1.613281 -3.578125 2.300781 -3.75 3.21875 -3.78125 L 4.28125 -3.8125 L 4.28125 -4.09375 C 4.28125 -4.707031 3.960938 -5.015625 3.328125 -5.015625 C 2.835938 -5.015625 2.257812 -4.867188 1.59375 -4.578125 L 1.046875 -5.703125 C 1.742188 -6.078125 2.523438 -6.265625 3.390625 -6.265625 C 4.210938 -6.265625 4.84375 -6.082031 5.28125 -5.71875 C 5.71875 -5.363281 5.9375 -4.820312 5.9375 -4.09375 L 5.9375 0 Z M 4.28125 -2.84375 L 3.625 -2.8125 C 3.144531 -2.800781 2.785156 -2.710938 2.546875 -2.546875 C 2.304688 -2.390625 2.1875 -2.148438 2.1875 -1.828125 C 2.1875 -1.347656 2.457031 -1.109375 3 -1.109375 C 3.382812 -1.109375 3.691406 -1.21875 3.921875 -1.4375 C 4.160156 -1.664062 4.28125 -1.96875 4.28125 -2.34375 Z M 4.28125 -2.84375 "/></g></g></g><g fill="#000000" fill-opacity="1"><g transform="translate(91.661781, 41.913015)"><g><path d="M 6.53125 0 L 4.859375 0 L 4.859375 -3.578125 C 4.859375 -4.023438 4.78125 -4.359375 4.625 -4.578125 C 4.46875 -4.796875 4.21875 -4.90625 3.875 -4.90625 C 3.40625 -4.90625 3.066406 -4.75 2.859375 -4.4375 C 2.648438 -4.125 2.546875 -3.609375 2.546875 -2.890625 L 2.546875 0 L 0.875 0 L 0.875 -6.140625 L 2.15625 -6.140625 L 2.375 -5.34375 L 2.46875 -5.34375 C 2.65625 -5.644531 2.910156 -5.867188 3.234375 -6.015625 C 3.566406 -6.171875 3.941406 -6.25 4.359375 -6.25 C 5.078125 -6.25 5.617188 -6.054688 5.984375 -5.671875 C 6.347656 -5.285156 6.53125 -4.726562 6.53125 -4 Z M 6.53125 0 "/></g></g></g><g fill="#000000" fill-opacity="1"><g transform="translate(99.040176, 41.913015)"><g><path d="M 3.375 0.109375 C 1.457031 0.109375 0.5 -0.9375 0.5 -3.03125 C 0.5 -4.070312 0.757812 -4.867188 1.28125 -5.421875 C 1.800781 -5.972656 2.546875 -6.25 3.515625 -6.25 C 4.222656 -6.25 4.859375 -6.109375 5.421875 -5.828125 L 4.9375 -4.53125 C 4.664062 -4.644531 4.414062 -4.734375 4.1875 -4.796875 C 3.96875 -4.867188 3.742188 -4.90625 3.515625 -4.90625 C 2.640625 -4.90625 2.203125 -4.285156 2.203125 -3.046875 C 2.203125 -1.847656 2.640625 -1.25 3.515625 -1.25 C 3.835938 -1.25 4.132812 -1.289062 4.40625 -1.375 C 4.6875 -1.457031 4.960938 -1.59375 5.234375 -1.78125 L 5.234375 -0.34375 C 4.960938 -0.175781 4.6875 -0.0625 4.40625 0 C 4.132812 0.0703125 3.789062 0.109375 3.375 0.109375 Z M 3.375 0.109375 "/></g></g></g><g fill="#000000" fill-opacity="1"><g transform="translate(104.812426, 41.913015)"><g><path d="M 0.8125 -7.71875 C 0.8125 -8.257812 1.113281 -8.53125 1.71875 -8.53125 C 2.320312 -8.53125 2.625 -8.257812 2.625 -7.71875 C 2.625 -7.457031 2.546875 -7.253906 2.390625 -7.109375 C 2.242188 -6.960938 2.019531 -6.890625 1.71875 -6.890625 C 1.113281 -6.890625 0.8125 -7.164062 0.8125 -7.71875 Z M 2.546875 0 L 0.875 0 L 0.875 -6.140625 L 2.546875 -6.140625 Z M 2.546875 0 "/></g></g></g><g fill="#000000" fill-opacity="1"><g transform="translate(108.238501, 41.913015)"><g><path d="M 5.15625 -1.828125 C 5.15625 -1.191406 4.9375 -0.707031 4.5 -0.375 C 4.0625 -0.0507812 3.410156 0.109375 2.546875 0.109375 C 2.097656 0.109375 1.710938 0.078125 1.390625 0.015625 C 1.078125 -0.046875 0.785156 -0.132812 0.515625 -0.25 L 0.515625 -1.625 C 0.828125 -1.476562 1.175781 -1.351562 1.5625 -1.25 C 1.957031 -1.15625 2.300781 -1.109375 2.59375 -1.109375 C 3.195312 -1.109375 3.5 -1.285156 3.5 -1.640625 C 3.5 -1.773438 3.457031 -1.878906 3.375 -1.953125 C 3.300781 -2.035156 3.164062 -2.128906 2.96875 -2.234375 C 2.769531 -2.335938 2.503906 -2.460938 2.171875 -2.609375 C 1.703125 -2.804688 1.359375 -2.988281 1.140625 -3.15625 C 0.921875 -3.320312 0.757812 -3.515625 0.65625 -3.734375 C 0.550781 -3.953125 0.5 -4.21875 0.5 -4.53125 C 0.5 -5.082031 0.707031 -5.503906 1.125 -5.796875 C 1.550781 -6.097656 2.15625 -6.25 2.9375 -6.25 C 3.675781 -6.25 4.394531 -6.085938 5.09375 -5.765625 L 4.578125 -4.5625 C 4.273438 -4.6875 3.988281 -4.789062 3.71875 -4.875 C 3.457031 -4.96875 3.1875 -5.015625 2.90625 -5.015625 C 2.414062 -5.015625 2.171875 -4.878906 2.171875 -4.609375 C 2.171875 -4.460938 2.25 -4.332031 2.40625 -4.21875 C 2.5625 -4.101562 2.910156 -3.941406 3.453125 -3.734375 C 3.929688 -3.535156 4.28125 -3.351562 4.5 -3.1875 C 4.726562 -3.019531 4.894531 -2.828125 5 -2.609375 C 5.101562 -2.390625 5.15625 -2.128906 5.15625 -1.828125 Z M 5.15625 -1.828125 "/></g></g></g><g fill="#000000" fill-opacity="1"><g transform="translate(113.818892, 41.913015)"><g><path d="M 3.375 0.109375 C 1.457031 0.109375 0.5 -0.9375 0.5 -3.03125 C 0.5 -4.070312 0.757812 -4.867188 1.28125 -5.421875 C 1.800781 -5.972656 2.546875 -6.25 3.515625 -6.25 C 4.222656 -6.25 4.859375 -6.109375 5.421875 -5.828125 L 4.9375 -4.53125 C 4.664062 -4.644531 4.414062 -4.734375 4.1875 -4.796875 C 3.96875 -4.867188 3.742188 -4.90625 3.515625 -4.90625 C 2.640625 -4.90625 2.203125 -4.285156 2.203125 -3.046875 C 2.203125 -1.847656 2.640625 -1.25 3.515625 -1.25 C 3.835938 -1.25 4.132812 -1.289062 4.40625 -1.375 C 4.6875 -1.457031 4.960938 -1.59375 5.234375 -1.78125 L 5.234375 -0.34375 C 4.960938 -0.175781 4.6875 -0.0625 4.40625 0 C 4.132812 0.0703125 3.789062 0.109375 3.375 0.109375 Z M 3.375 0.109375 "/></g></g></g><g fill="#000000" fill-opacity="1"><g transform="translate(119.591142, 41.913015)"><g><path d="M 2.203125 -3.078125 C 2.203125 -2.472656 2.300781 -2.015625 2.5 -1.703125 C 2.707031 -1.390625 3.035156 -1.234375 3.484375 -1.234375 C 3.929688 -1.234375 4.25 -1.382812 4.4375 -1.6875 C 4.632812 -2 4.734375 -2.460938 4.734375 -3.078125 C 4.734375 -3.679688 4.632812 -4.132812 4.4375 -4.4375 C 4.238281 -4.75 3.914062 -4.90625 3.46875 -4.90625 C 3.019531 -4.90625 2.695312 -4.753906 2.5 -4.453125 C 2.300781 -4.148438 2.203125 -3.691406 2.203125 -3.078125 Z M 6.453125 -3.078125 C 6.453125 -2.078125 6.1875 -1.296875 5.65625 -0.734375 C 5.132812 -0.171875 4.40625 0.109375 3.46875 0.109375 C 2.875 0.109375 2.351562 -0.015625 1.90625 -0.265625 C 1.457031 -0.523438 1.109375 -0.894531 0.859375 -1.375 C 0.617188 -1.863281 0.5 -2.429688 0.5 -3.078125 C 0.5 -4.078125 0.757812 -4.851562 1.28125 -5.40625 C 1.8125 -5.96875 2.550781 -6.25 3.5 -6.25 C 4.082031 -6.25 4.597656 -6.117188 5.046875 -5.859375 C 5.503906 -5.609375 5.851562 -5.242188 6.09375 -4.765625 C 6.332031 -4.285156 6.453125 -3.722656 6.453125 -3.078125 Z M 6.453125 -3.078125 "/></g></g></g><g fill="#000000" fill-opacity="1"><g transform="translate(35.41459, 52.00085)"><g><path d="M 5.5625 -3.03125 C 5.5625 -2.050781 5.296875 -1.300781 4.765625 -0.78125 C 4.234375 -0.257812 3.46875 0 2.46875 0 L 0.8125 0 L 0.8125 -5.9375 L 2.640625 -5.9375 C 3.566406 -5.9375 4.285156 -5.679688 4.796875 -5.171875 C 5.304688 -4.660156 5.5625 -3.945312 5.5625 -3.03125 Z M 4.828125 -3 C 4.828125 -3.78125 4.628906 -4.363281 4.234375 -4.75 C 3.847656 -5.144531 3.273438 -5.34375 2.515625 -5.34375 L 1.515625 -5.34375 L 1.515625 -0.59375 L 2.34375 -0.59375 C 3.175781 -0.59375 3.796875 -0.796875 4.203125 -1.203125 C 4.617188 -1.609375 4.828125 -2.207031 4.828125 -3 Z M 4.828125 -3 "/></g></g><g transform="translate(41.490308, 52.00085)"><g><path d="M 2.59375 0.078125 C 1.9375 0.078125 1.414062 -0.117188 1.03125 -0.515625 C 0.65625 -0.921875 0.46875 -1.476562 0.46875 -2.1875 C 0.46875 -2.90625 0.644531 -3.472656 1 -3.890625 C 1.351562 -4.316406 1.828125 -4.53125 2.421875 -4.53125 C 2.984375 -4.53125 3.425781 -4.347656 3.75 -3.984375 C 4.070312 -3.617188 4.234375 -3.132812 4.234375 -2.53125 L 4.234375 -2.109375 L 1.171875 -2.109375 C 1.179688 -1.585938 1.3125 -1.191406 1.5625 -0.921875 C 1.8125 -0.648438 2.164062 -0.515625 2.625 -0.515625 C 3.101562 -0.515625 3.578125 -0.613281 4.046875 -0.8125 L 4.046875 -0.203125 C 3.804688 -0.0976562 3.578125 -0.0234375 3.359375 0.015625 C 3.148438 0.0546875 2.894531 0.078125 2.59375 0.078125 Z M 2.421875 -3.96875 C 2.054688 -3.96875 1.765625 -3.851562 1.546875 -3.625 C 1.335938 -3.394531 1.21875 -3.070312 1.1875 -2.65625 L 3.515625 -2.65625 C 3.515625 -3.082031 3.414062 -3.40625 3.21875 -3.625 C 3.03125 -3.851562 2.765625 -3.96875 2.421875 -3.96875 Z M 2.421875 -3.96875 "/></g></g><g transform="translate(46.166128, 52.00085)"><g><path d="M 3.59375 -1.21875 C 3.59375 -0.800781 3.4375 -0.476562 3.125 -0.25 C 2.8125 -0.03125 2.378906 0.078125 1.828125 0.078125 C 1.234375 0.078125 0.769531 -0.015625 0.4375 -0.203125 L 0.4375 -0.828125 C 0.65625 -0.710938 0.882812 -0.625 1.125 -0.5625 C 1.375 -0.5 1.613281 -0.46875 1.84375 -0.46875 C 2.195312 -0.46875 2.46875 -0.523438 2.65625 -0.640625 C 2.84375 -0.753906 2.9375 -0.925781 2.9375 -1.15625 C 2.9375 -1.332031 2.859375 -1.484375 2.703125 -1.609375 C 2.554688 -1.734375 2.265625 -1.878906 1.828125 -2.046875 C 1.421875 -2.191406 1.128906 -2.320312 0.953125 -2.4375 C 0.773438 -2.5625 0.644531 -2.695312 0.5625 -2.84375 C 0.476562 -2.988281 0.4375 -3.160156 0.4375 -3.359375 C 0.4375 -3.722656 0.582031 -4.007812 0.875 -4.21875 C 1.164062 -4.425781 1.570312 -4.53125 2.09375 -4.53125 C 2.570312 -4.53125 3.039062 -4.4375 3.5 -4.25 L 3.25 -3.703125 C 2.8125 -3.878906 2.410156 -3.96875 2.046875 -3.96875 C 1.722656 -3.96875 1.476562 -3.914062 1.3125 -3.8125 C 1.15625 -3.71875 1.078125 -3.582031 1.078125 -3.40625 C 1.078125 -3.289062 1.101562 -3.191406 1.15625 -3.109375 C 1.21875 -3.023438 1.316406 -2.941406 1.453125 -2.859375 C 1.585938 -2.785156 1.847656 -2.675781 2.234375 -2.53125 C 2.765625 -2.34375 3.125 -2.148438 3.3125 -1.953125 C 3.5 -1.753906 3.59375 -1.507812 3.59375 -1.21875 Z M 3.59375 -1.21875 "/></g></g><g transform="translate(50.142, 52.00085)"><g><path d="M 2.59375 0.078125 C 1.9375 0.078125 1.414062 -0.117188 1.03125 -0.515625 C 0.65625 -0.921875 0.46875 -1.476562 0.46875 -2.1875 C 0.46875 -2.90625 0.644531 -3.472656 1 -3.890625 C 1.351562 -4.316406 1.828125 -4.53125 2.421875 -4.53125 C 2.984375 -4.53125 3.425781 -4.347656 3.75 -3.984375 C 4.070312 -3.617188 4.234375 -3.132812 4.234375 -2.53125 L 4.234375 -2.109375 L 1.171875 -2.109375 C 1.179688 -1.585938 1.3125 -1.191406 1.5625 -0.921875 C 1.8125 -0.648438 2.164062 -0.515625 2.625 -0.515625 C 3.101562 -0.515625 3.578125 -0.613281 4.046875 -0.8125 L 4.046875 -0.203125 C 3.804688 -0.0976562 3.578125 -0.0234375 3.359375 0.015625 C 3.148438 0.0546875 2.894531 0.078125 2.59375 0.078125 Z M 2.421875 -3.96875 C 2.054688 -3.96875 1.765625 -3.851562 1.546875 -3.625 C 1.335938 -3.394531 1.21875 -3.070312 1.1875 -2.65625 L 3.515625 -2.65625 C 3.515625 -3.082031 3.414062 -3.40625 3.21875 -3.625 C 3.03125 -3.851562 2.765625 -3.96875 2.421875 -3.96875 Z M 2.421875 -3.96875 "/></g></g><g transform="translate(54.81782, 52.00085)"><g><path d="M 3.765625 0 L 3.765625 -2.890625 C 3.765625 -3.242188 3.679688 -3.507812 3.515625 -3.6875 C 3.347656 -3.875 3.085938 -3.96875 2.734375 -3.96875 C 2.273438 -3.96875 1.9375 -3.835938 1.71875 -3.578125 C 1.5 -3.328125 1.390625 -2.914062 1.390625 -2.34375 L 1.390625 0 L 0.71875 0 L 0.71875 -4.453125 L 1.265625 -4.453125 L 1.375 -3.84375 L 1.40625 -3.84375 C 1.539062 -4.0625 1.734375 -4.226562 1.984375 -4.34375 C 2.234375 -4.46875 2.515625 -4.53125 2.828125 -4.53125 C 3.359375 -4.53125 3.757812 -4.398438 4.03125 -4.140625 C 4.300781 -3.890625 4.4375 -3.476562 4.4375 -2.90625 L 4.4375 0 Z M 3.765625 0 "/></g></g><g transform="translate(59.933143, 52.00085)"><g><path d="M 1.6875 0 L 0 -4.453125 L 0.71875 -4.453125 L 1.6875 -1.8125 C 1.90625 -1.195312 2.03125 -0.796875 2.0625 -0.609375 L 2.09375 -0.609375 C 2.125 -0.753906 2.21875 -1.050781 2.375 -1.5 C 2.539062 -1.945312 2.898438 -2.929688 3.453125 -4.453125 L 4.171875 -4.453125 L 2.484375 0 Z M 1.6875 0 "/></g></g><g transform="translate(64.108419, 52.00085)"><g><path d="M 4.5625 -2.234375 C 4.5625 -1.503906 4.378906 -0.9375 4.015625 -0.53125 C 3.648438 -0.125 3.144531 0.078125 2.5 0.078125 C 2.101562 0.078125 1.75 -0.015625 1.4375 -0.203125 C 1.125 -0.390625 0.882812 -0.65625 0.71875 -1 C 0.550781 -1.351562 0.46875 -1.765625 0.46875 -2.234375 C 0.46875 -2.960938 0.648438 -3.523438 1.015625 -3.921875 C 1.378906 -4.328125 1.882812 -4.53125 2.53125 -4.53125 C 3.144531 -4.53125 3.632812 -4.320312 4 -3.90625 C 4.375 -3.5 4.5625 -2.941406 4.5625 -2.234375 Z M 1.171875 -2.234375 C 1.171875 -1.660156 1.28125 -1.222656 1.5 -0.921875 C 1.726562 -0.628906 2.066406 -0.484375 2.515625 -0.484375 C 2.953125 -0.484375 3.285156 -0.628906 3.515625 -0.921875 C 3.742188 -1.222656 3.859375 -1.660156 3.859375 -2.234375 C 3.859375 -2.796875 3.742188 -3.222656 3.515625 -3.515625 C 3.285156 -3.816406 2.945312 -3.96875 2.5 -3.96875 C 2.0625 -3.96875 1.726562 -3.820312 1.5 -3.53125 C 1.28125 -3.238281 1.171875 -2.804688 1.171875 -2.234375 Z M 1.171875 -2.234375 "/></g></g><g transform="translate(69.142352, 52.00085)"><g><path d="M 1.390625 0 L 0.71875 0 L 0.71875 -6.328125 L 1.390625 -6.328125 Z M 1.390625 0 "/></g></g><g transform="translate(71.250337, 52.00085)"><g><path d="M 1.6875 0 L 0 -4.453125 L 0.71875 -4.453125 L 1.6875 -1.8125 C 1.90625 -1.195312 2.03125 -0.796875 2.0625 -0.609375 L 2.09375 -0.609375 C 2.125 -0.753906 2.21875 -1.050781 2.375 -1.5 C 2.539062 -1.945312 2.898438 -2.929688 3.453125 -4.453125 L 4.171875 -4.453125 L 2.484375 0 Z M 1.6875 0 "/></g></g><g transform="translate(75.425613, 52.00085)"><g><path d="M 2.59375 0.078125 C 1.9375 0.078125 1.414062 -0.117188 1.03125 -0.515625 C 0.65625 -0.921875 0.46875 -1.476562 0.46875 -2.1875 C 0.46875 -2.90625 0.644531 -3.472656 1 -3.890625 C 1.351562 -4.316406 1.828125 -4.53125 2.421875 -4.53125 C 2.984375 -4.53125 3.425781 -4.347656 3.75 -3.984375 C 4.070312 -3.617188 4.234375 -3.132812 4.234375 -2.53125 L 4.234375 -2.109375 L 1.171875 -2.109375 C 1.179688 -1.585938 1.3125 -1.191406 1.5625 -0.921875 C 1.8125 -0.648438 2.164062 -0.515625 2.625 -0.515625 C 3.101562 -0.515625 3.578125 -0.613281 4.046875 -0.8125 L 4.046875 -0.203125 C 3.804688 -0.0976562 3.578125 -0.0234375 3.359375 0.015625 C 3.148438 0.0546875 2.894531 0.078125 2.59375 0.078125 Z M 2.421875 -3.96875 C 2.054688 -3.96875 1.765625 -3.851562 1.546875 -3.625 C 1.335938 -3.394531 1.21875 -3.070312 1.1875 -2.65625 L 3.515625 -2.65625 C 3.515625 -3.082031 3.414062 -3.40625 3.21875 -3.625 C 3.03125 -3.851562 2.765625 -3.96875 2.421875 -3.96875 Z M 2.421875 -3.96875 "/></g></g><g transform="translate(80.101433, 52.00085)"><g><path d="M 3.75 -0.59375 L 3.71875 -0.59375 C 3.40625 -0.144531 2.9375 0.078125 2.3125 0.078125 C 1.726562 0.078125 1.273438 -0.117188 0.953125 -0.515625 C 0.628906 -0.910156 0.46875 -1.476562 0.46875 -2.21875 C 0.46875 -2.945312 0.628906 -3.515625 0.953125 -3.921875 C 1.273438 -4.328125 1.726562 -4.53125 2.3125 -4.53125 C 2.914062 -4.53125 3.378906 -4.3125 3.703125 -3.875 L 3.75 -3.875 L 3.734375 -4.203125 L 3.71875 -4.515625 L 3.71875 -6.328125 L 4.390625 -6.328125 L 4.390625 0 L 3.84375 0 Z M 2.40625 -0.484375 C 2.863281 -0.484375 3.195312 -0.609375 3.40625 -0.859375 C 3.613281 -1.109375 3.71875 -1.515625 3.71875 -2.078125 L 3.71875 -2.21875 C 3.71875 -2.84375 3.609375 -3.289062 3.390625 -3.5625 C 3.179688 -3.832031 2.847656 -3.96875 2.390625 -3.96875 C 1.992188 -3.96875 1.691406 -3.8125 1.484375 -3.5 C 1.273438 -3.195312 1.171875 -2.765625 1.171875 -2.203125 C 1.171875 -1.640625 1.273438 -1.210938 1.484375 -0.921875 C 1.691406 -0.628906 2 -0.484375 2.40625 -0.484375 Z M 2.40625 -0.484375 "/></g></g><g transform="translate(85.208617, 52.00085)"><g><path d="M 4.5625 -2.234375 C 4.5625 -1.503906 4.378906 -0.9375 4.015625 -0.53125 C 3.648438 -0.125 3.144531 0.078125 2.5 0.078125 C 2.101562 0.078125 1.75 -0.015625 1.4375 -0.203125 C 1.125 -0.390625 0.882812 -0.65625 0.71875 -1 C 0.550781 -1.351562 0.46875 -1.765625 0.46875 -2.234375 C 0.46875 -2.960938 0.648438 -3.523438 1.015625 -3.921875 C 1.378906 -4.328125 1.882812 -4.53125 2.53125 -4.53125 C 3.144531 -4.53125 3.632812 -4.320312 4 -3.90625 C 4.375 -3.5 4.5625 -2.941406 4.5625 -2.234375 Z M 1.171875 -2.234375 C 1.171875 -1.660156 1.28125 -1.222656 1.5 -0.921875 C 1.726562 -0.628906 2.066406 -0.484375 2.515625 -0.484375 C 2.953125 -0.484375 3.285156 -0.628906 3.515625 -0.921875 C 3.742188 -1.222656 3.859375 -1.660156 3.859375 -2.234375 C 3.859375 -2.796875 3.742188 -3.222656 3.515625 -3.515625 C 3.285156 -3.816406 2.945312 -3.96875 2.5 -3.96875 C 2.0625 -3.96875 1.726562 -3.820312 1.5 -3.53125 C 1.28125 -3.238281 1.171875 -2.804688 1.171875 -2.234375 Z M 1.171875 -2.234375 "/></g></g><g transform="translate(90.242551, 52.00085)"><g><path d="M 2.75 -4.53125 C 2.945312 -4.53125 3.125 -4.515625 3.28125 -4.484375 L 3.1875 -3.859375 C 3 -3.898438 2.835938 -3.921875 2.703125 -3.921875 C 2.335938 -3.921875 2.023438 -3.773438 1.765625 -3.484375 C 1.515625 -3.191406 1.390625 -2.828125 1.390625 -2.390625 L 1.390625 0 L 0.71875 0 L 0.71875 -4.453125 L 1.265625 -4.453125 L 1.34375 -3.625 L 1.375 -3.625 C 1.539062 -3.914062 1.738281 -4.140625 1.96875 -4.296875 C 2.207031 -4.453125 2.46875 -4.53125 2.75 -4.53125 Z M 2.75 -4.53125 "/></g></g><g transform="translate(93.644627, 52.00085)"><g/></g><g transform="translate(95.809585, 52.00085)"><g><path d="M 0.625 -0.4375 C 0.625 -0.613281 0.660156 -0.75 0.734375 -0.84375 C 0.816406 -0.9375 0.9375 -0.984375 1.09375 -0.984375 C 1.25 -0.984375 1.367188 -0.9375 1.453125 -0.84375 C 1.546875 -0.75 1.59375 -0.613281 1.59375 -0.4375 C 1.59375 -0.257812 1.546875 -0.117188 1.453125 -0.015625 C 1.367188 0.078125 1.25 0.125 1.09375 0.125 C 0.957031 0.125 0.84375 0.0820312 0.75 0 C 0.664062 -0.09375 0.625 -0.238281 0.625 -0.4375 Z M 0.625 -0.4375 "/></g></g><g transform="translate(98.027446, 52.00085)"><g><path d="M 5.46875 0 L 4.671875 0 L 1.421875 -4.984375 L 1.390625 -4.984375 C 1.429688 -4.398438 1.453125 -3.863281 1.453125 -3.375 L 1.453125 0 L 0.8125 0 L 0.8125 -5.9375 L 1.59375 -5.9375 L 4.84375 -0.96875 L 4.875 -0.96875 C 4.863281 -1.039062 4.847656 -1.273438 4.828125 -1.671875 C 4.816406 -2.078125 4.8125 -2.363281 4.8125 -2.53125 L 4.8125 -5.9375 L 5.46875 -5.9375 Z M 5.46875 0 "/></g></g><g transform="translate(104.310706, 52.00085)"><g><path d="M 2.59375 0.078125 C 1.9375 0.078125 1.414062 -0.117188 1.03125 -0.515625 C 0.65625 -0.921875 0.46875 -1.476562 0.46875 -2.1875 C 0.46875 -2.90625 0.644531 -3.472656 1 -3.890625 C 1.351562 -4.316406 1.828125 -4.53125 2.421875 -4.53125 C 2.984375 -4.53125 3.425781 -4.347656 3.75 -3.984375 C 4.070312 -3.617188 4.234375 -3.132812 4.234375 -2.53125 L 4.234375 -2.109375 L 1.171875 -2.109375 C 1.179688 -1.585938 1.3125 -1.191406 1.5625 -0.921875 C 1.8125 -0.648438 2.164062 -0.515625 2.625 -0.515625 C 3.101562 -0.515625 3.578125 -0.613281 4.046875 -0.8125 L 4.046875 -0.203125 C 3.804688 -0.0976562 3.578125 -0.0234375 3.359375 0.015625 C 3.148438 0.0546875 2.894531 0.078125 2.59375 0.078125 Z M 2.421875 -3.96875 C 2.054688 -3.96875 1.765625 -3.851562 1.546875 -3.625 C 1.335938 -3.394531 1.21875 -3.070312 1.1875 -2.65625 L 3.515625 -2.65625 C 3.515625 -3.082031 3.414062 -3.40625 3.21875 -3.625 C 3.03125 -3.851562 2.765625 -3.96875 2.421875 -3.96875 Z M 2.421875 -3.96875 "/></g></g><g transform="translate(108.986527, 52.00085)"><g><path d="M 2.15625 -0.46875 C 2.269531 -0.46875 2.382812 -0.476562 2.5 -0.5 C 2.613281 -0.519531 2.703125 -0.539062 2.765625 -0.5625 L 2.765625 -0.046875 C 2.691406 -0.00390625 2.582031 0.0234375 2.4375 0.046875 C 2.300781 0.0664062 2.175781 0.078125 2.0625 0.078125 C 1.195312 0.078125 0.765625 -0.375 0.765625 -1.28125 L 0.765625 -3.9375 L 0.125 -3.9375 L 0.125 -4.25 L 0.765625 -4.53125 L 1.046875 -5.484375 L 1.4375 -5.484375 L 1.4375 -4.453125 L 2.734375 -4.453125 L 2.734375 -3.9375 L 1.4375 -3.9375 L 1.4375 -1.3125 C 1.4375 -1.039062 1.5 -0.832031 1.625 -0.6875 C 1.757812 -0.539062 1.9375 -0.46875 2.15625 -0.46875 Z M 2.15625 -0.46875 "/></g></g><g transform="translate(111.928753, 52.00085)"><g/></g><g transform="translate(114.093711, 52.00085)"><g><path d="M 1.421875 -0.96875 L 1.484375 -0.875 C 1.410156 -0.601562 1.304688 -0.289062 1.171875 0.0625 C 1.046875 0.425781 0.910156 0.765625 0.765625 1.078125 L 0.25 1.078125 C 0.320312 0.796875 0.398438 0.445312 0.484375 0.03125 C 0.578125 -0.382812 0.644531 -0.71875 0.6875 -0.96875 Z M 0.59375 -4.015625 C 0.59375 -4.390625 0.753906 -4.578125 1.078125 -4.578125 C 1.410156 -4.578125 1.578125 -4.390625 1.578125 -4.015625 C 1.578125 -3.835938 1.53125 -3.703125 1.4375 -3.609375 C 1.351562 -3.515625 1.234375 -3.46875 1.078125 -3.46875 C 0.921875 -3.46875 0.800781 -3.515625 0.71875 -3.609375 C 0.632812 -3.703125 0.59375 -3.835938 0.59375 -4.015625 Z M 0.59375 -4.015625 "/></g></g></g></svg>
