<svg xmlns="http://www.w3.org/2000/svg" xmlns:xlink="http://www.w3.org/1999/xlink" width="200" zoomAndPan="magnify" viewBox="0 0 150 74.999997" height="100" preserveAspectRatio="xMidYMid meet" version="1.0"><defs><g/><clipPath id="e4e21814d8"><path d="M 21.941406 32.140625 L 111.941406 32.140625 L 111.941406 42.640625 L 21.941406 42.640625 Z M 21.941406 32.140625 " clip-rule="nonzero"/></clipPath></defs><g fill="#ffffff" fill-opacity="1"><g transform="translate(2.489481, 47.194471)"><g><path d="M 19.859375 -16.671875 L 7.75 -9.59375 L 7.78125 -9.359375 L 19.90625 -2.953125 L 18.171875 0.234375 L 2.875 -7.9375 L 2.671875 -10.703125 L 18.171875 -19.65625 Z M 19.859375 -16.671875 "/></g></g></g><g fill="#ffffff" fill-opacity="1"><g transform="translate(25.136627, 47.194471)"><g><path d="M 12.90625 -28.4375 L 16.40625 -26.90625 L 4.359375 4.796875 L 0.78125 3.34375 Z M 12.90625 -28.4375 "/></g></g></g><g fill="#ffffff" fill-opacity="1"><g transform="translate(41.49131, 47.194471)"><g/></g></g><g fill="#ffffff" fill-opacity="1"><g transform="translate(51.910573, 47.194471)"><g/></g></g><g fill="#ffffff" fill-opacity="1"><g transform="translate(62.329836, 47.194471)"><g/></g></g><g fill="#ffffff" fill-opacity="1"><g transform="translate(72.749098, 47.194471)"><g/></g></g><g fill="#ffffff" fill-opacity="1"><g transform="translate(83.168361, 47.194471)"><g/></g></g><g fill="#ffffff" fill-opacity="1"><g transform="translate(93.587624, 47.194471)"><g/></g></g><g fill="#ffffff" fill-opacity="1"><g transform="translate(104.006886, 47.194471)"><g/></g></g><g fill="#ffffff" fill-opacity="1"><g transform="translate(114.426149, 47.194471)"><g/></g></g><g fill="#ffffff" fill-opacity="1"><g transform="translate(124.842736, 47.194471)"><g><path d="M 4.484375 -19.65625 L 19.984375 -10.703125 L 19.78125 -7.9375 L 4.484375 0.234375 L 2.75 -2.953125 L 14.859375 -9.359375 L 14.90625 -9.59375 L 2.796875 -16.671875 Z M 4.484375 -19.65625 "/></g></g></g><g clip-path="url(#e4e21814d8)"><path fill="#000000" d="M 21.980469 32.140625 L 111.902344 32.140625 L 111.902344 42.640625 L 21.980469 42.640625 L 21.980469 32.140625 " fill-opacity="1" fill-rule="nonzero"/></g><g fill="#000000" fill-opacity="1"><g transform="translate(66.8342, 37.390821)"><g/></g></g><g fill="#000000" fill-opacity="1"><g transform="translate(66.8342, 38.140821)"><g/></g></g><g fill="#ffffff" fill-opacity="1"><g transform="translate(25.148542, 41.714984)"><g><path d="M 2.703125 -4.453125 L 3.265625 -4.453125 C 3.796875 -4.453125 4.1875 -4.539062 4.4375 -4.71875 C 4.695312 -4.90625 4.828125 -5.191406 4.828125 -5.578125 C 4.828125 -5.953125 4.695312 -6.21875 4.4375 -6.375 C 4.175781 -6.539062 3.769531 -6.625 3.21875 -6.625 L 2.703125 -6.625 Z M 2.703125 -3.078125 L 2.703125 0 L 1.015625 0 L 1.015625 -8.015625 L 3.34375 -8.015625 C 4.4375 -8.015625 5.242188 -7.816406 5.765625 -7.421875 C 6.285156 -7.023438 6.546875 -6.425781 6.546875 -5.625 C 6.546875 -5.144531 6.414062 -4.722656 6.15625 -4.359375 C 5.894531 -3.992188 5.53125 -3.707031 5.0625 -3.5 C 6.269531 -1.695312 7.054688 -0.53125 7.421875 0 L 5.53125 0 L 3.609375 -3.078125 Z M 2.703125 -3.078125 "/></g></g></g><g fill="#ffffff" fill-opacity="1"><g transform="translate(32.565782, 41.714984)"><g><path d="M 4.765625 0 L 4.453125 -0.828125 L 4.40625 -0.828125 C 4.125 -0.472656 3.832031 -0.226562 3.53125 -0.09375 C 3.238281 0.0390625 2.851562 0.109375 2.375 0.109375 C 1.78125 0.109375 1.3125 -0.0546875 0.96875 -0.390625 C 0.632812 -0.734375 0.46875 -1.210938 0.46875 -1.828125 C 0.46875 -2.484375 0.695312 -2.960938 1.15625 -3.265625 C 1.613281 -3.578125 2.300781 -3.75 3.21875 -3.78125 L 4.28125 -3.8125 L 4.28125 -4.09375 C 4.28125 -4.707031 3.960938 -5.015625 3.328125 -5.015625 C 2.835938 -5.015625 2.257812 -4.867188 1.59375 -4.578125 L 1.046875 -5.703125 C 1.742188 -6.078125 2.523438 -6.265625 3.390625 -6.265625 C 4.210938 -6.265625 4.84375 -6.082031 5.28125 -5.71875 C 5.71875 -5.363281 5.9375 -4.820312 5.9375 -4.09375 L 5.9375 0 Z M 4.28125 -2.84375 L 3.625 -2.8125 C 3.144531 -2.800781 2.785156 -2.710938 2.546875 -2.546875 C 2.304688 -2.390625 2.1875 -2.148438 2.1875 -1.828125 C 2.1875 -1.347656 2.457031 -1.109375 3 -1.109375 C 3.382812 -1.109375 3.691406 -1.21875 3.921875 -1.4375 C 4.160156 -1.664062 4.28125 -1.96875 4.28125 -2.34375 Z M 4.28125 -2.84375 "/></g></g></g><g fill="#ffffff" fill-opacity="1"><g transform="translate(39.352124, 41.714984)"><g><path d="M 4.25 0.109375 C 3.53125 0.109375 2.960938 -0.148438 2.546875 -0.671875 L 2.46875 -0.671875 C 2.519531 -0.160156 2.546875 0.132812 2.546875 0.21875 L 2.546875 2.703125 L 0.875 2.703125 L 0.875 -6.140625 L 2.234375 -6.140625 L 2.46875 -5.34375 L 2.546875 -5.34375 C 2.941406 -5.945312 3.523438 -6.25 4.296875 -6.25 C 5.015625 -6.25 5.578125 -5.96875 5.984375 -5.40625 C 6.398438 -4.84375 6.609375 -4.066406 6.609375 -3.078125 C 6.609375 -2.421875 6.507812 -1.847656 6.3125 -1.359375 C 6.125 -0.878906 5.851562 -0.515625 5.5 -0.265625 C 5.144531 -0.015625 4.726562 0.109375 4.25 0.109375 Z M 3.75 -4.90625 C 3.332031 -4.90625 3.03125 -4.773438 2.84375 -4.515625 C 2.65625 -4.265625 2.554688 -3.847656 2.546875 -3.265625 L 2.546875 -3.09375 C 2.546875 -2.425781 2.644531 -1.953125 2.84375 -1.671875 C 3.039062 -1.390625 3.351562 -1.25 3.78125 -1.25 C 4.53125 -1.25 4.90625 -1.863281 4.90625 -3.09375 C 4.90625 -3.695312 4.8125 -4.148438 4.625 -4.453125 C 4.4375 -4.753906 4.144531 -4.90625 3.75 -4.90625 Z M 3.75 -4.90625 "/></g></g></g><g fill="#ffffff" fill-opacity="1"><g transform="translate(46.462141, 41.714984)"><g><path d="M 6.53125 0 L 4.859375 0 L 4.859375 -3.578125 C 4.859375 -4.460938 4.53125 -4.90625 3.875 -4.90625 C 3.40625 -4.90625 3.066406 -4.742188 2.859375 -4.421875 C 2.648438 -4.109375 2.546875 -3.597656 2.546875 -2.890625 L 2.546875 0 L 0.875 0 L 0.875 -8.53125 L 2.546875 -8.53125 L 2.546875 -6.796875 C 2.546875 -6.660156 2.535156 -6.34375 2.515625 -5.84375 L 2.46875 -5.34375 L 2.5625 -5.34375 C 2.9375 -5.945312 3.53125 -6.25 4.34375 -6.25 C 5.0625 -6.25 5.601562 -6.050781 5.96875 -5.65625 C 6.34375 -5.269531 6.53125 -4.71875 6.53125 -4 Z M 6.53125 0 "/></g></g></g><g fill="#ffffff" fill-opacity="1"><g transform="translate(53.846464, 41.714984)"><g><path d="M 4.765625 0 L 4.453125 -0.828125 L 4.40625 -0.828125 C 4.125 -0.472656 3.832031 -0.226562 3.53125 -0.09375 C 3.238281 0.0390625 2.851562 0.109375 2.375 0.109375 C 1.78125 0.109375 1.3125 -0.0546875 0.96875 -0.390625 C 0.632812 -0.734375 0.46875 -1.210938 0.46875 -1.828125 C 0.46875 -2.484375 0.695312 -2.960938 1.15625 -3.265625 C 1.613281 -3.578125 2.300781 -3.75 3.21875 -3.78125 L 4.28125 -3.8125 L 4.28125 -4.09375 C 4.28125 -4.707031 3.960938 -5.015625 3.328125 -5.015625 C 2.835938 -5.015625 2.257812 -4.867188 1.59375 -4.578125 L 1.046875 -5.703125 C 1.742188 -6.078125 2.523438 -6.265625 3.390625 -6.265625 C 4.210938 -6.265625 4.84375 -6.082031 5.28125 -5.71875 C 5.71875 -5.363281 5.9375 -4.820312 5.9375 -4.09375 L 5.9375 0 Z M 4.28125 -2.84375 L 3.625 -2.8125 C 3.144531 -2.800781 2.785156 -2.710938 2.546875 -2.546875 C 2.304688 -2.390625 2.1875 -2.148438 2.1875 -1.828125 C 2.1875 -1.347656 2.457031 -1.109375 3 -1.109375 C 3.382812 -1.109375 3.691406 -1.21875 3.921875 -1.4375 C 4.160156 -1.664062 4.28125 -1.96875 4.28125 -2.34375 Z M 4.28125 -2.84375 "/></g></g></g><g fill="#ffffff" fill-opacity="1"><g transform="translate(60.632806, 41.714984)"><g><path d="M 3.421875 -5.0625 C 3.066406 -5.0625 2.785156 -4.945312 2.578125 -4.71875 C 2.378906 -4.5 2.265625 -4.179688 2.234375 -3.765625 L 4.578125 -3.765625 C 4.578125 -4.179688 4.472656 -4.5 4.265625 -4.71875 C 4.054688 -4.945312 3.773438 -5.0625 3.421875 -5.0625 Z M 3.65625 0.109375 C 2.664062 0.109375 1.890625 -0.160156 1.328125 -0.703125 C 0.773438 -1.253906 0.5 -2.023438 0.5 -3.015625 C 0.5 -4.046875 0.753906 -4.84375 1.265625 -5.40625 C 1.785156 -5.96875 2.5 -6.25 3.40625 -6.25 C 4.269531 -6.25 4.941406 -6 5.421875 -5.5 C 5.910156 -5.007812 6.15625 -4.332031 6.15625 -3.46875 L 6.15625 -2.65625 L 2.203125 -2.65625 C 2.222656 -2.175781 2.363281 -1.800781 2.625 -1.53125 C 2.882812 -1.269531 3.253906 -1.140625 3.734375 -1.140625 C 4.097656 -1.140625 4.441406 -1.175781 4.765625 -1.25 C 5.097656 -1.320312 5.445312 -1.445312 5.8125 -1.625 L 5.8125 -0.328125 C 5.519531 -0.179688 5.207031 -0.0703125 4.875 0 C 4.539062 0.0703125 4.132812 0.109375 3.65625 0.109375 Z M 3.65625 0.109375 "/></g></g></g><g fill="#ffffff" fill-opacity="1"><g transform="translate(67.271017, 41.714984)"><g><path d="M 2.546875 0 L 0.875 0 L 0.875 -8.53125 L 2.546875 -8.53125 Z M 2.546875 0 "/></g></g></g><g fill="#ffffff" fill-opacity="1"><g transform="translate(70.699851, 41.714984)"><g/></g></g><g fill="#ffffff" fill-opacity="1"><g transform="translate(73.618469, 41.714984)"><g><path d="M 2.6875 0 L 1.015625 0 L 1.015625 -8.015625 L 5.609375 -8.015625 L 5.609375 -6.625 L 2.6875 -6.625 L 2.6875 -4.5625 L 5.40625 -4.5625 L 5.40625 -3.171875 L 2.6875 -3.171875 Z M 2.6875 0 "/></g></g></g><g fill="#ffffff" fill-opacity="1"><g transform="translate(79.784873, 41.714984)"><g><path d="M 4.296875 -6.25 C 4.523438 -6.25 4.710938 -6.234375 4.859375 -6.203125 L 4.734375 -4.625 C 4.597656 -4.664062 4.4375 -4.6875 4.25 -4.6875 C 3.707031 -4.6875 3.285156 -4.546875 2.984375 -4.265625 C 2.691406 -3.992188 2.546875 -3.613281 2.546875 -3.125 L 2.546875 0 L 0.875 0 L 0.875 -6.140625 L 2.140625 -6.140625 L 2.390625 -5.09375 L 2.46875 -5.09375 C 2.664062 -5.445312 2.925781 -5.726562 3.25 -5.9375 C 3.570312 -6.144531 3.921875 -6.25 4.296875 -6.25 Z M 4.296875 -6.25 "/></g></g></g><g fill="#ffffff" fill-opacity="1"><g transform="translate(84.886968, 41.714984)"><g><path d="M 4.765625 0 L 4.453125 -0.828125 L 4.40625 -0.828125 C 4.125 -0.472656 3.832031 -0.226562 3.53125 -0.09375 C 3.238281 0.0390625 2.851562 0.109375 2.375 0.109375 C 1.78125 0.109375 1.3125 -0.0546875 0.96875 -0.390625 C 0.632812 -0.734375 0.46875 -1.210938 0.46875 -1.828125 C 0.46875 -2.484375 0.695312 -2.960938 1.15625 -3.265625 C 1.613281 -3.578125 2.300781 -3.75 3.21875 -3.78125 L 4.28125 -3.8125 L 4.28125 -4.09375 C 4.28125 -4.707031 3.960938 -5.015625 3.328125 -5.015625 C 2.835938 -5.015625 2.257812 -4.867188 1.59375 -4.578125 L 1.046875 -5.703125 C 1.742188 -6.078125 2.523438 -6.265625 3.390625 -6.265625 C 4.210938 -6.265625 4.84375 -6.082031 5.28125 -5.71875 C 5.71875 -5.363281 5.9375 -4.820312 5.9375 -4.09375 L 5.9375 0 Z M 4.28125 -2.84375 L 3.625 -2.8125 C 3.144531 -2.800781 2.785156 -2.710938 2.546875 -2.546875 C 2.304688 -2.390625 2.1875 -2.148438 2.1875 -1.828125 C 2.1875 -1.347656 2.457031 -1.109375 3 -1.109375 C 3.382812 -1.109375 3.691406 -1.21875 3.921875 -1.4375 C 4.160156 -1.664062 4.28125 -1.96875 4.28125 -2.34375 Z M 4.28125 -2.84375 "/></g></g></g><g fill="#ffffff" fill-opacity="1"><g transform="translate(91.673311, 41.714984)"><g><path d="M 6.53125 0 L 4.859375 0 L 4.859375 -3.578125 C 4.859375 -4.023438 4.78125 -4.359375 4.625 -4.578125 C 4.46875 -4.796875 4.21875 -4.90625 3.875 -4.90625 C 3.40625 -4.90625 3.066406 -4.75 2.859375 -4.4375 C 2.648438 -4.125 2.546875 -3.609375 2.546875 -2.890625 L 2.546875 0 L 0.875 0 L 0.875 -6.140625 L 2.15625 -6.140625 L 2.375 -5.34375 L 2.46875 -5.34375 C 2.65625 -5.644531 2.910156 -5.867188 3.234375 -6.015625 C 3.566406 -6.171875 3.941406 -6.25 4.359375 -6.25 C 5.078125 -6.25 5.617188 -6.054688 5.984375 -5.671875 C 6.347656 -5.285156 6.53125 -4.726562 6.53125 -4 Z M 6.53125 0 "/></g></g></g><g fill="#ffffff" fill-opacity="1"><g transform="translate(99.057634, 41.714984)"><g><path d="M 3.375 0.109375 C 1.457031 0.109375 0.5 -0.9375 0.5 -3.03125 C 0.5 -4.070312 0.757812 -4.867188 1.28125 -5.421875 C 1.800781 -5.972656 2.546875 -6.25 3.515625 -6.25 C 4.222656 -6.25 4.859375 -6.109375 5.421875 -5.828125 L 4.9375 -4.53125 C 4.664062 -4.644531 4.414062 -4.734375 4.1875 -4.796875 C 3.96875 -4.867188 3.742188 -4.90625 3.515625 -4.90625 C 2.640625 -4.90625 2.203125 -4.285156 2.203125 -3.046875 C 2.203125 -1.847656 2.640625 -1.25 3.515625 -1.25 C 3.835938 -1.25 4.132812 -1.289062 4.40625 -1.375 C 4.6875 -1.457031 4.960938 -1.59375 5.234375 -1.78125 L 5.234375 -0.34375 C 4.960938 -0.175781 4.6875 -0.0625 4.40625 0 C 4.132812 0.0703125 3.789062 0.109375 3.375 0.109375 Z M 3.375 0.109375 "/></g></g></g><g fill="#ffffff" fill-opacity="1"><g transform="translate(104.834529, 41.714984)"><g><path d="M 0.8125 -7.71875 C 0.8125 -8.257812 1.113281 -8.53125 1.71875 -8.53125 C 2.320312 -8.53125 2.625 -8.257812 2.625 -7.71875 C 2.625 -7.457031 2.546875 -7.253906 2.390625 -7.109375 C 2.242188 -6.960938 2.019531 -6.890625 1.71875 -6.890625 C 1.113281 -6.890625 0.8125 -7.164062 0.8125 -7.71875 Z M 2.546875 0 L 0.875 0 L 0.875 -6.140625 L 2.546875 -6.140625 Z M 2.546875 0 "/></g></g></g><g fill="#ffffff" fill-opacity="1"><g transform="translate(108.263363, 41.714984)"><g><path d="M 5.15625 -1.828125 C 5.15625 -1.191406 4.9375 -0.707031 4.5 -0.375 C 4.0625 -0.0507812 3.410156 0.109375 2.546875 0.109375 C 2.097656 0.109375 1.710938 0.078125 1.390625 0.015625 C 1.078125 -0.046875 0.785156 -0.132812 0.515625 -0.25 L 0.515625 -1.625 C 0.828125 -1.476562 1.175781 -1.351562 1.5625 -1.25 C 1.957031 -1.15625 2.300781 -1.109375 2.59375 -1.109375 C 3.195312 -1.109375 3.5 -1.285156 3.5 -1.640625 C 3.5 -1.773438 3.457031 -1.878906 3.375 -1.953125 C 3.300781 -2.035156 3.164062 -2.128906 2.96875 -2.234375 C 2.769531 -2.335938 2.503906 -2.460938 2.171875 -2.609375 C 1.703125 -2.804688 1.359375 -2.988281 1.140625 -3.15625 C 0.921875 -3.320312 0.757812 -3.515625 0.65625 -3.734375 C 0.550781 -3.953125 0.5 -4.21875 0.5 -4.53125 C 0.5 -5.082031 0.707031 -5.503906 1.125 -5.796875 C 1.550781 -6.097656 2.15625 -6.25 2.9375 -6.25 C 3.675781 -6.25 4.394531 -6.085938 5.09375 -5.765625 L 4.578125 -4.5625 C 4.273438 -4.6875 3.988281 -4.789062 3.71875 -4.875 C 3.457031 -4.96875 3.1875 -5.015625 2.90625 -5.015625 C 2.414062 -5.015625 2.171875 -4.878906 2.171875 -4.609375 C 2.171875 -4.460938 2.25 -4.332031 2.40625 -4.21875 C 2.5625 -4.101562 2.910156 -3.941406 3.453125 -3.734375 C 3.929688 -3.535156 4.28125 -3.351562 4.5 -3.1875 C 4.726562 -3.019531 4.894531 -2.828125 5 -2.609375 C 5.101562 -2.390625 5.15625 -2.128906 5.15625 -1.828125 Z M 5.15625 -1.828125 "/></g></g></g><g fill="#ffffff" fill-opacity="1"><g transform="translate(113.848238, 41.714984)"><g><path d="M 3.375 0.109375 C 1.457031 0.109375 0.5 -0.9375 0.5 -3.03125 C 0.5 -4.070312 0.757812 -4.867188 1.28125 -5.421875 C 1.800781 -5.972656 2.546875 -6.25 3.515625 -6.25 C 4.222656 -6.25 4.859375 -6.109375 5.421875 -5.828125 L 4.9375 -4.53125 C 4.664062 -4.644531 4.414062 -4.734375 4.1875 -4.796875 C 3.96875 -4.867188 3.742188 -4.90625 3.515625 -4.90625 C 2.640625 -4.90625 2.203125 -4.285156 2.203125 -3.046875 C 2.203125 -1.847656 2.640625 -1.25 3.515625 -1.25 C 3.835938 -1.25 4.132812 -1.289062 4.40625 -1.375 C 4.6875 -1.457031 4.960938 -1.59375 5.234375 -1.78125 L 5.234375 -0.34375 C 4.960938 -0.175781 4.6875 -0.0625 4.40625 0 C 4.132812 0.0703125 3.789062 0.109375 3.375 0.109375 Z M 3.375 0.109375 "/></g></g></g><g fill="#ffffff" fill-opacity="1"><g transform="translate(119.625133, 41.714984)"><g><path d="M 2.203125 -3.078125 C 2.203125 -2.472656 2.300781 -2.015625 2.5 -1.703125 C 2.707031 -1.390625 3.035156 -1.234375 3.484375 -1.234375 C 3.929688 -1.234375 4.25 -1.382812 4.4375 -1.6875 C 4.632812 -2 4.734375 -2.460938 4.734375 -3.078125 C 4.734375 -3.679688 4.632812 -4.132812 4.4375 -4.4375 C 4.238281 -4.75 3.914062 -4.90625 3.46875 -4.90625 C 3.019531 -4.90625 2.695312 -4.753906 2.5 -4.453125 C 2.300781 -4.148438 2.203125 -3.691406 2.203125 -3.078125 Z M 6.453125 -3.078125 C 6.453125 -2.078125 6.1875 -1.296875 5.65625 -0.734375 C 5.132812 -0.171875 4.40625 0.109375 3.46875 0.109375 C 2.875 0.109375 2.351562 -0.015625 1.90625 -0.265625 C 1.457031 -0.523438 1.109375 -0.894531 0.859375 -1.375 C 0.617188 -1.863281 0.5 -2.429688 0.5 -3.078125 C 0.5 -4.078125 0.757812 -4.851562 1.28125 -5.40625 C 1.8125 -5.96875 2.550781 -6.25 3.5 -6.25 C 4.082031 -6.25 4.597656 -6.117188 5.046875 -5.859375 C 5.503906 -5.609375 5.851562 -5.242188 6.09375 -4.765625 C 6.332031 -4.285156 6.453125 -3.722656 6.453125 -3.078125 Z M 6.453125 -3.078125 "/></g></g></g><g fill="#ffffff" fill-opacity="1"><g transform="translate(45.122719, 50.150855)"><g><path d="M 4.234375 -2.296875 C 4.234375 -1.554688 4.03125 -0.988281 3.625 -0.59375 C 3.21875 -0.195312 2.632812 0 1.875 0 L 0.625 0 L 0.625 -4.515625 L 2 -4.515625 C 2.707031 -4.515625 3.253906 -4.316406 3.640625 -3.921875 C 4.035156 -3.535156 4.234375 -2.992188 4.234375 -2.296875 Z M 3.671875 -2.28125 C 3.671875 -2.875 3.519531 -3.316406 3.21875 -3.609375 C 2.925781 -3.910156 2.488281 -4.0625 1.90625 -4.0625 L 1.140625 -4.0625 L 1.140625 -0.453125 L 1.78125 -0.453125 C 2.40625 -0.453125 2.875 -0.601562 3.1875 -0.90625 C 3.507812 -1.21875 3.671875 -1.675781 3.671875 -2.28125 Z M 3.671875 -2.28125 "/></g></g><g transform="translate(49.740433, 50.150855)"><g><path d="M 1.96875 0.0625 C 1.46875 0.0625 1.070312 -0.0859375 0.78125 -0.390625 C 0.5 -0.703125 0.359375 -1.128906 0.359375 -1.671875 C 0.359375 -2.210938 0.488281 -2.644531 0.75 -2.96875 C 1.019531 -3.289062 1.382812 -3.453125 1.84375 -3.453125 C 2.269531 -3.453125 2.601562 -3.3125 2.84375 -3.03125 C 3.09375 -2.75 3.21875 -2.378906 3.21875 -1.921875 L 3.21875 -1.59375 L 0.890625 -1.59375 C 0.898438 -1.195312 1 -0.894531 1.1875 -0.6875 C 1.375 -0.488281 1.644531 -0.390625 2 -0.390625 C 2.363281 -0.390625 2.722656 -0.460938 3.078125 -0.609375 L 3.078125 -0.15625 C 2.890625 -0.0820312 2.710938 -0.03125 2.546875 0 C 2.390625 0.0390625 2.195312 0.0625 1.96875 0.0625 Z M 1.828125 -3.015625 C 1.554688 -3.015625 1.335938 -2.925781 1.171875 -2.75 C 1.015625 -2.570312 0.925781 -2.328125 0.90625 -2.015625 L 2.671875 -2.015625 C 2.671875 -2.335938 2.597656 -2.582031 2.453125 -2.75 C 2.304688 -2.925781 2.097656 -3.015625 1.828125 -3.015625 Z M 1.828125 -3.015625 "/></g></g><g transform="translate(53.294185, 50.150855)"><g><path d="M 2.734375 -0.921875 C 2.734375 -0.609375 2.613281 -0.363281 2.375 -0.1875 C 2.144531 -0.0195312 1.816406 0.0625 1.390625 0.0625 C 0.941406 0.0625 0.59375 -0.0078125 0.34375 -0.15625 L 0.34375 -0.625 C 0.5 -0.539062 0.671875 -0.472656 0.859375 -0.421875 C 1.046875 -0.378906 1.226562 -0.359375 1.40625 -0.359375 C 1.664062 -0.359375 1.867188 -0.398438 2.015625 -0.484375 C 2.160156 -0.578125 2.234375 -0.707031 2.234375 -0.875 C 2.234375 -1.007812 2.175781 -1.125 2.0625 -1.21875 C 1.945312 -1.3125 1.722656 -1.421875 1.390625 -1.546875 C 1.078125 -1.671875 0.851562 -1.773438 0.71875 -1.859375 C 0.582031 -1.941406 0.484375 -2.039062 0.421875 -2.15625 C 0.359375 -2.269531 0.328125 -2.40625 0.328125 -2.5625 C 0.328125 -2.832031 0.4375 -3.046875 0.65625 -3.203125 C 0.882812 -3.367188 1.195312 -3.453125 1.59375 -3.453125 C 1.957031 -3.453125 2.3125 -3.375 2.65625 -3.21875 L 2.46875 -2.8125 C 2.132812 -2.945312 1.828125 -3.015625 1.546875 -3.015625 C 1.304688 -3.015625 1.125 -2.976562 1 -2.90625 C 0.875 -2.832031 0.8125 -2.726562 0.8125 -2.59375 C 0.8125 -2.5 0.832031 -2.421875 0.875 -2.359375 C 0.925781 -2.296875 1.003906 -2.234375 1.109375 -2.171875 C 1.210938 -2.117188 1.410156 -2.035156 1.703125 -1.921875 C 2.109375 -1.773438 2.378906 -1.628906 2.515625 -1.484375 C 2.660156 -1.335938 2.734375 -1.148438 2.734375 -0.921875 Z M 2.734375 -0.921875 "/></g></g><g transform="translate(56.315958, 50.150855)"><g><path d="M 1.96875 0.0625 C 1.46875 0.0625 1.070312 -0.0859375 0.78125 -0.390625 C 0.5 -0.703125 0.359375 -1.128906 0.359375 -1.671875 C 0.359375 -2.210938 0.488281 -2.644531 0.75 -2.96875 C 1.019531 -3.289062 1.382812 -3.453125 1.84375 -3.453125 C 2.269531 -3.453125 2.601562 -3.3125 2.84375 -3.03125 C 3.09375 -2.75 3.21875 -2.378906 3.21875 -1.921875 L 3.21875 -1.59375 L 0.890625 -1.59375 C 0.898438 -1.195312 1 -0.894531 1.1875 -0.6875 C 1.375 -0.488281 1.644531 -0.390625 2 -0.390625 C 2.363281 -0.390625 2.722656 -0.460938 3.078125 -0.609375 L 3.078125 -0.15625 C 2.890625 -0.0820312 2.710938 -0.03125 2.546875 0 C 2.390625 0.0390625 2.195312 0.0625 1.96875 0.0625 Z M 1.828125 -3.015625 C 1.554688 -3.015625 1.335938 -2.925781 1.171875 -2.75 C 1.015625 -2.570312 0.925781 -2.328125 0.90625 -2.015625 L 2.671875 -2.015625 C 2.671875 -2.335938 2.597656 -2.582031 2.453125 -2.75 C 2.304688 -2.925781 2.097656 -3.015625 1.828125 -3.015625 Z M 1.828125 -3.015625 "/></g></g><g transform="translate(59.86971, 50.150855)"><g><path d="M 2.859375 0 L 2.859375 -2.1875 C 2.859375 -2.46875 2.796875 -2.675781 2.671875 -2.8125 C 2.546875 -2.945312 2.347656 -3.015625 2.078125 -3.015625 C 1.722656 -3.015625 1.460938 -2.914062 1.296875 -2.71875 C 1.140625 -2.53125 1.0625 -2.21875 1.0625 -1.78125 L 1.0625 0 L 0.546875 0 L 0.546875 -3.390625 L 0.96875 -3.390625 L 1.046875 -2.921875 L 1.0625 -2.921875 C 1.175781 -3.085938 1.328125 -3.21875 1.515625 -3.3125 C 1.703125 -3.40625 1.910156 -3.453125 2.140625 -3.453125 C 2.546875 -3.453125 2.851562 -3.351562 3.0625 -3.15625 C 3.269531 -2.957031 3.375 -2.640625 3.375 -2.203125 L 3.375 0 Z M 2.859375 0 "/></g></g><g transform="translate(63.757497, 50.150855)"><g><path d="M 1.28125 0 L 0 -3.390625 L 0.546875 -3.390625 L 1.28125 -1.375 C 1.445312 -0.90625 1.539062 -0.601562 1.5625 -0.46875 L 1.59375 -0.46875 C 1.613281 -0.570312 1.679688 -0.796875 1.796875 -1.140625 C 1.921875 -1.484375 2.195312 -2.234375 2.625 -3.390625 L 3.171875 -3.390625 L 1.890625 0 Z M 1.28125 0 "/></g></g><g transform="translate(66.930822, 50.150855)"><g><path d="M 3.46875 -1.703125 C 3.46875 -1.148438 3.328125 -0.71875 3.046875 -0.40625 C 2.765625 -0.09375 2.378906 0.0625 1.890625 0.0625 C 1.585938 0.0625 1.316406 -0.00390625 1.078125 -0.140625 C 0.847656 -0.285156 0.671875 -0.488281 0.546875 -0.75 C 0.421875 -1.019531 0.359375 -1.335938 0.359375 -1.703125 C 0.359375 -2.253906 0.492188 -2.679688 0.765625 -2.984375 C 1.046875 -3.296875 1.429688 -3.453125 1.921875 -3.453125 C 2.390625 -3.453125 2.765625 -3.289062 3.046875 -2.96875 C 3.328125 -2.65625 3.46875 -2.234375 3.46875 -1.703125 Z M 0.890625 -1.703125 C 0.890625 -1.265625 0.972656 -0.929688 1.140625 -0.703125 C 1.316406 -0.484375 1.570312 -0.375 1.90625 -0.375 C 2.238281 -0.375 2.492188 -0.484375 2.671875 -0.703125 C 2.847656 -0.929688 2.9375 -1.265625 2.9375 -1.703125 C 2.9375 -2.128906 2.847656 -2.453125 2.671875 -2.671875 C 2.492188 -2.898438 2.238281 -3.015625 1.90625 -3.015625 C 1.570312 -3.015625 1.316406 -2.898438 1.140625 -2.671875 C 0.972656 -2.453125 0.890625 -2.128906 0.890625 -1.703125 Z M 0.890625 -1.703125 "/></g></g><g transform="translate(70.756751, 50.150855)"><g><path d="M 1.0625 0 L 0.546875 0 L 0.546875 -4.8125 L 1.0625 -4.8125 Z M 1.0625 0 "/></g></g><g transform="translate(72.358878, 50.150855)"><g><path d="M 1.28125 0 L 0 -3.390625 L 0.546875 -3.390625 L 1.28125 -1.375 C 1.445312 -0.90625 1.539062 -0.601562 1.5625 -0.46875 L 1.59375 -0.46875 C 1.613281 -0.570312 1.679688 -0.796875 1.796875 -1.140625 C 1.921875 -1.484375 2.195312 -2.234375 2.625 -3.390625 L 3.171875 -3.390625 L 1.890625 0 Z M 1.28125 0 "/></g></g><g transform="translate(75.532203, 50.150855)"><g><path d="M 1.96875 0.0625 C 1.46875 0.0625 1.070312 -0.0859375 0.78125 -0.390625 C 0.5 -0.703125 0.359375 -1.128906 0.359375 -1.671875 C 0.359375 -2.210938 0.488281 -2.644531 0.75 -2.96875 C 1.019531 -3.289062 1.382812 -3.453125 1.84375 -3.453125 C 2.269531 -3.453125 2.601562 -3.3125 2.84375 -3.03125 C 3.09375 -2.75 3.21875 -2.378906 3.21875 -1.921875 L 3.21875 -1.59375 L 0.890625 -1.59375 C 0.898438 -1.195312 1 -0.894531 1.1875 -0.6875 C 1.375 -0.488281 1.644531 -0.390625 2 -0.390625 C 2.363281 -0.390625 2.722656 -0.460938 3.078125 -0.609375 L 3.078125 -0.15625 C 2.890625 -0.0820312 2.710938 -0.03125 2.546875 0 C 2.390625 0.0390625 2.195312 0.0625 1.96875 0.0625 Z M 1.828125 -3.015625 C 1.554688 -3.015625 1.335938 -2.925781 1.171875 -2.75 C 1.015625 -2.570312 0.925781 -2.328125 0.90625 -2.015625 L 2.671875 -2.015625 C 2.671875 -2.335938 2.597656 -2.582031 2.453125 -2.75 C 2.304688 -2.925781 2.097656 -3.015625 1.828125 -3.015625 Z M 1.828125 -3.015625 "/></g></g><g transform="translate(79.085955, 50.150855)"><g><path d="M 2.84375 -0.453125 L 2.828125 -0.453125 C 2.585938 -0.109375 2.234375 0.0625 1.765625 0.0625 C 1.316406 0.0625 0.96875 -0.0859375 0.71875 -0.390625 C 0.476562 -0.691406 0.359375 -1.125 0.359375 -1.6875 C 0.359375 -2.238281 0.476562 -2.671875 0.71875 -2.984375 C 0.96875 -3.296875 1.316406 -3.453125 1.765625 -3.453125 C 2.222656 -3.453125 2.570312 -3.285156 2.8125 -2.953125 L 2.859375 -2.953125 L 2.828125 -3.1875 L 2.828125 -4.8125 L 3.328125 -4.8125 L 3.328125 0 L 2.921875 0 Z M 1.828125 -0.375 C 2.171875 -0.375 2.421875 -0.46875 2.578125 -0.65625 C 2.742188 -0.84375 2.828125 -1.148438 2.828125 -1.578125 L 2.828125 -1.6875 C 2.828125 -2.164062 2.742188 -2.503906 2.578125 -2.703125 C 2.421875 -2.910156 2.164062 -3.015625 1.8125 -3.015625 C 1.507812 -3.015625 1.28125 -2.894531 1.125 -2.65625 C 0.96875 -2.425781 0.890625 -2.097656 0.890625 -1.671875 C 0.890625 -1.242188 0.96875 -0.921875 1.125 -0.703125 C 1.28125 -0.484375 1.515625 -0.375 1.828125 -0.375 Z M 1.828125 -0.375 "/></g></g><g transform="translate(82.967557, 50.150855)"><g><path d="M 3.46875 -1.703125 C 3.46875 -1.148438 3.328125 -0.71875 3.046875 -0.40625 C 2.765625 -0.09375 2.378906 0.0625 1.890625 0.0625 C 1.585938 0.0625 1.316406 -0.00390625 1.078125 -0.140625 C 0.847656 -0.285156 0.671875 -0.488281 0.546875 -0.75 C 0.421875 -1.019531 0.359375 -1.335938 0.359375 -1.703125 C 0.359375 -2.253906 0.492188 -2.679688 0.765625 -2.984375 C 1.046875 -3.296875 1.429688 -3.453125 1.921875 -3.453125 C 2.390625 -3.453125 2.765625 -3.289062 3.046875 -2.96875 C 3.328125 -2.65625 3.46875 -2.234375 3.46875 -1.703125 Z M 0.890625 -1.703125 C 0.890625 -1.265625 0.972656 -0.929688 1.140625 -0.703125 C 1.316406 -0.484375 1.570312 -0.375 1.90625 -0.375 C 2.238281 -0.375 2.492188 -0.484375 2.671875 -0.703125 C 2.847656 -0.929688 2.9375 -1.265625 2.9375 -1.703125 C 2.9375 -2.128906 2.847656 -2.453125 2.671875 -2.671875 C 2.492188 -2.898438 2.238281 -3.015625 1.90625 -3.015625 C 1.570312 -3.015625 1.316406 -2.898438 1.140625 -2.671875 C 0.972656 -2.453125 0.890625 -2.128906 0.890625 -1.703125 Z M 0.890625 -1.703125 "/></g></g><g transform="translate(86.793485, 50.150855)"><g><path d="M 2.09375 -3.453125 C 2.238281 -3.453125 2.375 -3.4375 2.5 -3.40625 L 2.421875 -2.9375 C 2.285156 -2.96875 2.160156 -2.984375 2.046875 -2.984375 C 1.773438 -2.984375 1.539062 -2.867188 1.34375 -2.640625 C 1.15625 -2.421875 1.0625 -2.144531 1.0625 -1.8125 L 1.0625 0 L 0.546875 0 L 0.546875 -3.390625 L 0.96875 -3.390625 L 1.03125 -2.765625 L 1.046875 -2.765625 C 1.171875 -2.984375 1.320312 -3.148438 1.5 -3.265625 C 1.675781 -3.390625 1.875 -3.453125 2.09375 -3.453125 Z M 2.09375 -3.453125 "/></g></g><g transform="translate(89.379157, 50.150855)"><g/></g><g transform="translate(91.024585, 50.150855)"><g><path d="M 0.46875 -0.328125 C 0.46875 -0.460938 0.5 -0.566406 0.5625 -0.640625 C 0.625 -0.710938 0.710938 -0.75 0.828125 -0.75 C 0.953125 -0.75 1.046875 -0.710938 1.109375 -0.640625 C 1.179688 -0.566406 1.21875 -0.460938 1.21875 -0.328125 C 1.21875 -0.191406 1.179688 -0.0859375 1.109375 -0.015625 C 1.046875 0.0546875 0.953125 0.09375 0.828125 0.09375 C 0.722656 0.09375 0.632812 0.0625 0.5625 0 C 0.5 -0.0703125 0.46875 -0.179688 0.46875 -0.328125 Z M 0.46875 -0.328125 "/></g></g><g transform="translate(92.710221, 50.150855)"><g><path d="M 4.15625 0 L 3.546875 0 L 1.078125 -3.796875 L 1.0625 -3.796875 C 1.09375 -3.347656 1.109375 -2.9375 1.109375 -2.5625 L 1.109375 0 L 0.625 0 L 0.625 -4.515625 L 1.21875 -4.515625 L 3.671875 -0.734375 L 3.703125 -0.734375 C 3.703125 -0.796875 3.691406 -0.976562 3.671875 -1.28125 C 3.660156 -1.582031 3.65625 -1.796875 3.65625 -1.921875 L 3.65625 -4.515625 L 4.15625 -4.515625 Z M 4.15625 0 "/></g></g><g transform="translate(97.485673, 50.150855)"><g><path d="M 1.96875 0.0625 C 1.46875 0.0625 1.070312 -0.0859375 0.78125 -0.390625 C 0.5 -0.703125 0.359375 -1.128906 0.359375 -1.671875 C 0.359375 -2.210938 0.488281 -2.644531 0.75 -2.96875 C 1.019531 -3.289062 1.382812 -3.453125 1.84375 -3.453125 C 2.269531 -3.453125 2.601562 -3.3125 2.84375 -3.03125 C 3.09375 -2.75 3.21875 -2.378906 3.21875 -1.921875 L 3.21875 -1.59375 L 0.890625 -1.59375 C 0.898438 -1.195312 1 -0.894531 1.1875 -0.6875 C 1.375 -0.488281 1.644531 -0.390625 2 -0.390625 C 2.363281 -0.390625 2.722656 -0.460938 3.078125 -0.609375 L 3.078125 -0.15625 C 2.890625 -0.0820312 2.710938 -0.03125 2.546875 0 C 2.390625 0.0390625 2.195312 0.0625 1.96875 0.0625 Z M 1.828125 -3.015625 C 1.554688 -3.015625 1.335938 -2.925781 1.171875 -2.75 C 1.015625 -2.570312 0.925781 -2.328125 0.90625 -2.015625 L 2.671875 -2.015625 C 2.671875 -2.335938 2.597656 -2.582031 2.453125 -2.75 C 2.304688 -2.925781 2.097656 -3.015625 1.828125 -3.015625 Z M 1.828125 -3.015625 "/></g></g><g transform="translate(101.039425, 50.150855)"><g><path d="M 1.640625 -0.359375 C 1.734375 -0.359375 1.820312 -0.363281 1.90625 -0.375 C 1.988281 -0.394531 2.050781 -0.410156 2.09375 -0.421875 L 2.09375 -0.03125 C 2.039062 0 1.957031 0.0195312 1.84375 0.03125 C 1.738281 0.0507812 1.644531 0.0625 1.5625 0.0625 C 0.90625 0.0625 0.578125 -0.28125 0.578125 -0.96875 L 0.578125 -2.984375 L 0.09375 -2.984375 L 0.09375 -3.234375 L 0.578125 -3.453125 L 0.796875 -4.171875 L 1.09375 -4.171875 L 1.09375 -3.390625 L 2.078125 -3.390625 L 2.078125 -2.984375 L 1.09375 -2.984375 L 1.09375 -1 C 1.09375 -0.789062 1.140625 -0.628906 1.234375 -0.515625 C 1.335938 -0.410156 1.472656 -0.359375 1.640625 -0.359375 Z M 1.640625 -0.359375 "/></g></g><g transform="translate(103.275599, 50.150855)"><g/></g><g transform="translate(104.921026, 50.150855)"><g><path d="M 1.078125 -0.734375 L 1.125 -0.671875 C 1.070312 -0.460938 0.992188 -0.222656 0.890625 0.046875 C 0.796875 0.328125 0.691406 0.582031 0.578125 0.8125 L 0.1875 0.8125 C 0.25 0.601562 0.3125 0.335938 0.375 0.015625 C 0.445312 -0.296875 0.492188 -0.546875 0.515625 -0.734375 Z M 0.453125 -3.0625 C 0.453125 -3.332031 0.578125 -3.46875 0.828125 -3.46875 C 1.078125 -3.46875 1.203125 -3.332031 1.203125 -3.0625 C 1.203125 -2.925781 1.164062 -2.820312 1.09375 -2.75 C 1.03125 -2.675781 0.941406 -2.640625 0.828125 -2.640625 C 0.703125 -2.640625 0.609375 -2.675781 0.546875 -2.75 C 0.484375 -2.820312 0.453125 -2.925781 0.453125 -3.0625 Z M 0.453125 -3.0625 "/></g></g></g></svg>